<mxfile host="app.diagrams.net" agent="Mozilla/5.0 (iPad; CPU OS 15_8 like Mac OS X) AppleWebKit/605.1.15 (KHTML, like Gecko) CriOS/124.0.6367.111 Mobile/15E148 Safari/604.1" version="24.7.7">
  <diagram name="Page-1" id="Z6Za3Jjk9kr6Txn61LeW">
    <mxGraphModel dx="990" dy="530" grid="0" gridSize="10" guides="1" tooltips="1" connect="1" arrows="1" fold="1" page="0" pageScale="1" pageWidth="827" pageHeight="1169" math="0" shadow="0">
      <root>
        <mxCell id="0" />
        <mxCell id="1" parent="0" />
      </root>
    </mxGraphModel>
  </diagram>
</mxfile>
